<?xml version="1.0" standalone="no"?><!DOCTYPE svg PUBLIC "-//W3C//DTD SVG 1.1//EN" "http://www.w3.org/Graphics/SVG/1.1/DTD/svg11.dtd"><svg t="1564814985596" class="icon" viewBox="0 0 1024 1024" version="1.1" xmlns="http://www.w3.org/2000/svg" p-id="18891" xmlns:xlink="http://www.w3.org/1999/xlink" width="64" height="64"><defs><style type="text/css">html, * { user-select: text !important; }
</style></defs><path d="M696.56148 738.820557m-29.999942 0a29.999941 29.999941 0 1 0 59.999883 0 29.999941 29.999941 0 1 0-59.999883 0Z" fill="" p-id="18892"></path><path d="M611.707645 653.968723m-29.999941 0a29.999941 29.999941 0 1 0 59.999883 0 29.999941 29.999941 0 1 0-59.999883 0Z" fill="" p-id="18893"></path><path d="M526.855811 569.114888m-29.999941 0a29.999941 29.999941 0 1 0 59.999882 0 29.999941 29.999941 0 1 0-59.999882 0Z" fill="" p-id="18894"></path><path d="M442.003977 484.263054m-29.999942 0a29.999941 29.999941 0 1 0 59.999883 0 29.999941 29.999941 0 1 0-59.999883 0Z" fill="" p-id="18895"></path><path d="M908.693065 738.820557l21.213959-21.213959c11.715977-11.715977 11.715977-30.70994 0-42.425917-11.713977-11.715977-30.70994-11.715977-42.425917 0l-21.213959 21.213959-424.051172-424.051172c-11.713977-11.715977-30.70994-11.715977-42.425917 0l-63.639876 63.639876-21.211958-21.211959c-11.697977-11.697977-11.695977-30.72994 0-42.425917l42.425917-42.425917c11.715977-11.715977 11.715977-30.70994 0-42.425917L272.510308 102.6398a29.999941 29.999941 0 0 0-42.423917 0l-21.275959 21.273958L93.582657 9.349982a30.003941 30.003941 0 0 0-49.613903 11.787977L1.542837 148.41571a29.995941 29.995941 0 0 0 7.337986 30.78794L81.502681 251.219509l-21.123959 21.123959a29.999941 29.999941 0 0 0 0 42.425917l593.75684 593.756841-21.213958 21.211958c-11.715977 11.715977-11.715977 30.70994 0 42.425917 11.713977 11.715977 30.71194 11.715977 42.425917 0l21.213959-21.211958 63.639875 63.639875c11.705977 11.707977 30.71394 11.713977 42.425917 0l169.705669-169.705668c11.715977-11.715977 11.715977-30.70994 0-42.425917l-63.639876-63.639876zM85.588673 86.011832L166.382515 166.339675l-42.453917 42.453917-59.573884-59.075884 21.233959-63.705876z m38.427925 207.545595l127.281751-127.277752 42.425917 42.425917-21.211958 21.213959c-35.089931 35.091931-35.089931 92.18782 0 127.277751l42.425917 42.425917c11.705977 11.707977 30.71394 11.713977 42.425917 0l63.639876-63.639875L823.841231 738.820557l-127.279751 127.279751L124.016598 293.557427z m657.398716 657.394716l-42.425917-42.425917 127.279751-127.279752 42.425917 42.425917-127.279751 127.279752zM849.149182 61.903879h-5.14599c-16.567968 0-29.999941 13.431974-29.999942 29.999942v155.159696a89.569825 89.569825 0 0 0-29.999941-5.159989c-49.625903 0-89.999824 40.373921-89.999824 89.999824s40.373921 89.999824 89.999824 89.999824 89.999824-40.373921 89.999824-89.999824V123.667758c37.273927 5.27399 71.69386 22.357956 98.787807 49.449904 11.713977 11.713977 30.70994 11.715977 42.425917 0 11.715977-11.715977 11.715977-30.70994 0-42.425917-44.361913-44.359913-103.337798-68.787866-166.067675-68.787866z m-65.145873 299.999414c-16.541968 0-29.999941-13.457974-29.999942-29.999941s13.457974-29.999941 29.999942-29.999942 29.999941 13.457974 29.999941 29.999942-13.457974 29.999941-29.999941 29.999941z" fill="" p-id="18896"></path></svg>