<?xml version="1.0" standalone="no"?><!DOCTYPE svg PUBLIC "-//W3C//DTD SVG 1.1//EN" "http://www.w3.org/Graphics/SVG/1.1/DTD/svg11.dtd"><svg t="1564814335664" class="icon" viewBox="0 0 1024 1024" version="1.1" xmlns="http://www.w3.org/2000/svg" p-id="2743" xmlns:xlink="http://www.w3.org/1999/xlink" width="64" height="64"><defs><style type="text/css">html, * { user-select: text !important; }
</style></defs><path d="M916.74624 111.96416c-57.26208-57.26208-161.13664-16.42496-192.34816 19.12832a10985.00096 10985.00096 0 0 0-132.79232 154.07104L185.09824 178.09408s-57.61024-15.5648-72.97024 28.99968c-2.39616 6.94272-0.9216 14.70464 4.87424 19.21024l334.336 228.74112c-96.07168 119.54176-141.96736 184.15616-141.96736 184.15616a68.46464 68.46464 0 0 1-58.14272 23.57248l-86.48704-7.8848c-20.19328-1.8432-49.84832-4.3008-64.2048 10.01472l-13.25056 13.2096a10.8544 10.8544 0 0 0 2.33472 17.16224l138.67008 78.29504c10.8544 6.12352 19.80416 15.09376 25.94816 25.94816l78.2336 138.5472a10.8544 10.8544 0 0 0 17.14176 2.3552l13.04576-13.02528c14.37696-14.37696 11.96032-44.07296 10.11712-64.3072l-7.90528-86.58944a68.46464 68.46464 0 0 1 23.57248-58.14272s65.78176-44.2368 185.61024-139.96032L801.44384 910.7456c4.5056 5.79584 12.26752 7.2704 19.21024 4.87424 44.56448-15.36 28.99968-72.97024 28.99968-72.97024l-106.53696-404.39808a7997.62432 7997.62432 0 0 0 153.3952-134.90176c36.12672-32.60416 70.22592-141.39392 20.23424-191.3856z m-72.35584 153.43616c-22.65088 22.65088-16.91648-19.80416-39.58784-42.45504-22.65088-22.65088-65.10592-16.91648-42.45504-39.58784 22.65088-22.65088 67.54304-14.49984 82.04288 0 14.49984 14.49984 22.65088 59.392 0 82.04288z" fill="#555555" p-id="2744"></path></svg>