<?xml version="1.0" standalone="no"?><!DOCTYPE svg PUBLIC "-//W3C//DTD SVG 1.1//EN" "http://www.w3.org/Graphics/SVG/1.1/DTD/svg11.dtd"><svg t="1564815405196" class="icon" viewBox="0 0 1024 1024" version="1.1" xmlns="http://www.w3.org/2000/svg" p-id="34595" xmlns:xlink="http://www.w3.org/1999/xlink" width="64" height="64"><defs><style type="text/css">html, * { user-select: text !important; }
</style></defs><path d="M886.357333 473.258667A380.16 380.16 0 0 0 512 149.333333a379.136 379.136 0 0 0-84.010667 10.282667 151.68 151.68 0 0 0-19.882666-24.832L319.317333 45.909333a25.6 25.6 0 0 0-36.224 0L194.304 134.698667a150.826667 150.826667 0 0 0-8.533333 203.093333 370.304 370.304 0 0 0-48.213334 135.808 69.290667 69.290667 0 0 0 16.426667 55.466667 71.082667 71.082667 0 0 0 53.717333 24.576H486.4V832a59.733333 59.733333 0 1 1-119.808 0v-26.581333a25.6 25.6 0 1 0-51.2 0v26.581333a110.933333 110.933333 0 1 0 222.208 0v-278.442667h278.613333a70.997333 70.997333 0 0 0 53.674667-24.576 69.930667 69.930667 0 0 0 16.469333-55.722666zM230.4 170.88l70.826667-70.656 70.656 70.656a99.968 99.968 0 1 1-141.354667 0z m600.704 324.522667a19.882667 19.882667 0 0 1-15.018667 6.912h-302.933333c-0.384 0-0.725333-0.213333-1.152-0.213334s-0.725333 0-1.152 0.213334H207.701333a19.968 19.968 0 0 1-15.061333-6.912 18.133333 18.133333 0 0 1-4.266667-14.506667 320 320 0 0 1 36.821334-109.44A150.058667 150.058667 0 0 0 448 207.488 327.936 327.936 0 0 1 512 200.533333a328.533333 328.533333 0 0 1 323.712 280.106667 18.517333 18.517333 0 0 1-4.522667 14.805333z" p-id="34596"></path></svg>