<?xml version="1.0" standalone="no"?><!DOCTYPE svg PUBLIC "-//W3C//DTD SVG 1.1//EN" "http://www.w3.org/Graphics/SVG/1.1/DTD/svg11.dtd"><svg t="1564820333157" class="icon" viewBox="0 0 1024 1024" version="1.1" xmlns="http://www.w3.org/2000/svg" p-id="44531" xmlns:xlink="http://www.w3.org/1999/xlink" width="64" height="64"><defs><style type="text/css">html, * { user-select: text !important; }
</style></defs><path d="M973.9776 972.8H21.3504A21.3504 21.3504 0 0 1 0 951.552V176.64C0 164.864 9.5744 153.6 21.3504 153.6h952.6784c11.1616 0 49.9712 10.24 49.9712 23.04v774.912c0 12.6976-38.8096 21.248-50.0224 21.248zM51.2 921.6h921.6V204.8H51.2v716.8z" p-id="44532"></path><path d="M629.504 582.912c-3.6864 0-7.424 1.5872-10.1888-1.1776l-29.0816-26.0608h-34.6112c-8.0384 0-14.4896-15.1552-14.4896-23.1936 0-7.9872 6.4512-23.1936 14.4896-23.1936h40.5504c3.8912 0 7.5264 7.168 10.24 9.9328l33.3312 36.1472a16.2304 16.2304 0 0 1 0 21.9136c-2.816 2.7648-6.5024 5.632-10.24 5.632z" p-id="44533"></path><path d="M554.6496 204.8l2.3552 384 0.1024 263.9872c-0.4096 35.9936 0.3072 65.9968-1.0752 86.9888-1.3312 21.0432-4.0448 33.024-4.0448 33.024h-28.8256s-2.7136-11.9808-4.0448-33.024c-1.3824-20.992-0.6144-50.9952-1.0752-86.9888l0.1024-263.9872 2.4064-384h34.0992zM782.3872 793.6a14.2336 14.2336 0 0 1-10.1888-4.1984 14.4896 14.4896 0 0 1 0-20.3776l56.0128-56.0128a14.4896 14.4896 0 0 1 20.3776 0 14.4896 14.4896 0 0 1 0 20.3776l-56.0128 56.0128a14.1824 14.1824 0 0 1-10.1888 4.1984zM809.6256 858.4192a14.2336 14.2336 0 0 1-10.1888-4.1984 14.4896 14.4896 0 0 1 0-20.3776l92.8256-92.8256a14.4896 14.4896 0 0 1 20.3776 0 14.4896 14.4896 0 0 1 0 20.3776l-92.8256 92.8256a14.5408 14.5408 0 0 1-10.1888 4.1984z" p-id="44534"></path></svg>