<?xml version="1.0" standalone="no"?><!DOCTYPE svg PUBLIC "-//W3C//DTD SVG 1.1//EN" "http://www.w3.org/Graphics/SVG/1.1/DTD/svg11.dtd"><svg t="1564817263287" class="icon" viewBox="0 0 1136 1024" version="1.1" xmlns="http://www.w3.org/2000/svg" p-id="39761" xmlns:xlink="http://www.w3.org/1999/xlink" width="71" height="64"><defs><style type="text/css">html, * { user-select: text !important; }
</style></defs><path d="M562.57685 1023.9986c-148.691611 0.1075-291.324458-58.916393-396.465963-164.057899S1.945488 612.16635 2.052988 463.474738a26.980066 26.980066 0 0 1 11.050027-21.777553c1.616254-1.181253 40.297598-29.145071 97.118986-41.855101 53.33013-11.918779 133.316574-12.47128 211.460514 52.676378 48.627618 40.517598 105.244006 51.630125 168.296658 33.04133 47.328865-13.955034 80.395195-39.492596 82.607701-41.2401 4.30126-3.545009 40.018847-32.118828 92.006474-46.698864 51.392625-14.463785 128.575312-17.983794 205.127998 47.108865 43.115105 36.695089 90.62522 47.973867 141.201593 33.545081a196.191727 196.191727 0 0 0 67.460164-35.082585 26.971316 26.971316 0 0 1 28.90757-4.25376 26.975066 26.975066 0 0 1 15.825038 24.561309A560.123861 560.123861 0 0 1 959.042813 859.955702a560.103861 560.103861 0 0 1-396.465963 164.042898zM56.21812 478.211024c7.822519 272.535662 231.963063 491.832445 506.35873 491.832445 262.208137 0 478.521162-200.244236 504.048724-455.851107a242.214338 242.214338 0 0 1-38.657594 15.278787c-47.992617 14.233785-120.487793 18.217544-193.227969-43.681356-46.415113-39.502596-98.163988-51.860126-153.789124-36.75384a217.521778 217.521778 0 0 0-74.06268 36.89509l-0.438751 0.361251c-1.710004 1.362503-42.392603 33.632582-101.221495 50.976374-80.253945 23.662557-155.664128 8.672521-218.10053-43.335106-49.20512-40.99135-104.766504-54.946383-165.147901-41.4451a240.383084 240.383084 0 0 0-65.76141 25.722562z m0 0" fill="#203529" p-id="39762"></path><path d="M915.238957 447.71345a46.816364 46.816364 0 0 1-11.562529-1.401253 39.481346 39.481346 0 0 1-25.860062-20.64505c-6.088765-11.860029-4.867512-26.591315 4.48251-54.165132 1.285003-3.852509 2.646256-7.563768 3.85251-10.996277C761.537333 232.410427 730.936009 224.816659 692.498415 215.335386c-4.545011-1.128753-9.286273-2.300006-14.325034-3.662509a26.977566 26.977566 0 0 1-19.678798 25.697562 111.00652 111.00652 0 0 1-30.087573 4.24876c-27.573817 0-53.818881-10.878776-76.006435-31.908827a160.57539 160.57539 0 0 1-26.191314-32.78383c-9.907524-0.556251-33.402581 1.283753-77.456438 20.41005-11.020027 4.795012-29.198821 12.705031-46.045112 12.705031-11.201277 0-21.835053-3.491258-29.326321-13.745034-15.262537-20.801301 0.576251-45.25886 5.791264-53.301379 3.306258-5.141262 6.787516-9.750024 9.468773-13.153782 9.921274-41.3676 32.85133-73.565179 68.271416-95.747733C548.279315-23.117694 695.003422 7.433631 723.753491 14.206147c42.076352-3.652509 66.807662 1.362503 79.741444 16.070039a32.95008 32.95008 0 0 1 7.915019 28.82757 27.130066 27.130066 0 0 1-2.710006 7.095017C897.846414 127.653923 955.155303 275.896783 971.855344 323.738149c74.706431 18.565045 113.735276 49.771371 115.469031 51.172624a26.977566 26.977566 0 0 1-16.816291 47.915117l-87.553963 0.630001a26.932565 26.932565 0 0 1-5.791264-0.591251c-0.483751 0.386251-0.971252 0.756252-1.480004 1.108752a187.256705 187.256705 0 0 1-21.840053 12.846282c-14.643786 7.295018-27.387567 10.893776-38.603843 10.893776z m-292.794462-309.088251a53.725131 53.725131 0 0 1 9.136272 0.835002c8.11502 1.416253 18.061294 4.628761 31.293826 10.097525 16.700041 6.938767 29.956323 10.215025 42.700104 13.375032 22.911306 5.678764 46.597613 11.562528 82.2227 35.971338 30.317574 20.878801 68.578917 54.795133 119.014039 105.576506-23.921308-59.096394-69.78517-154.160374-130.089066-194.746723l-0.951252-0.668752c-18.165044-13.398783-27.750067-27.505067-28.59382-42.061352-5.875014 0-13.365032 0.401251-22.817555 1.285003-3.160008 0.312501-6.347515 0.06375-9.418773-0.732501-1.465004-0.371251-149.781614-37.715092-229.469307 12.295029-23.125056 14.506285-37.631341 34.867585-44.272608 62.167651 76.275185-30.243823 108.135263-17.572543 118.501538-10.356275a26.012563 26.012563 0 0 1 9.136272 10.868777 106.810259 106.810259 0 0 0 20.71755 27.983818 29.715072 29.715072 0 0 1 4.741262-17.333792c3.637509-5.806264 11.831279-14.556285 28.148818-14.556286z m0 0" fill="#203529" p-id="39763"></path><path d="M535.174283 90.500082a13.142532 13.142532 0 1 0 19.717548 11.382528 13.150032 13.150032 0 0 0 0-22.763805 13.166282 13.166282 0 0 0-13.145032 0 13.145032 13.145032 0 0 0-6.572516 11.381277z m0 0M826.571241 373.313269a13.428783 13.428783 0 0 1-9.956274-4.38001c-0.697502-0.756252-62.553902-66.996413-148.03661-64.760158a13.496283 13.496283 0 0 1-12.212529-19.927548 13.488783 13.488783 0 0 1 11.503778-7.050017c98.116488-2.568756 165.830403 70.425171 168.667909 73.535178a13.481283 13.481283 0 0 1 2.367506 14.531286 13.495033 13.495033 0 0 1-12.33378 8.042519v0.00875zM577.596886 388.410806a13.490033 13.490033 0 0 1-8.106269-24.281309c64.771407-48.575118 185.776701-12.42253 190.889213-10.870026 7.128767 2.178755 11.142527 9.717524 8.970022 16.846291-2.172505 7.123767-9.717524 11.137527-16.841291 8.965021-1.117503-0.347501-113.056525-33.711332-166.845405 6.640016a13.392533 13.392533 0 0 1-8.06627 2.700007z m492.714947-45.028859h-0.370001a13.475033 13.475033 0 0 1-9.453773-4.198761 13.481283 13.481283 0 0 1-3.701259-9.663773c0.873752-32.118828-27.505067-96.581485-38.540093-118.706538a13.478783 13.478783 0 0 1 0.683751-13.607533 13.497533 13.497533 0 0 1 12.20253-6.070015c4.862512 0.332501 9.170022 3.262508 11.263777 7.666268 1.733754 3.496258 42.563853 86.073959 41.328851 131.45032a13.487533 13.487533 0 0 1-13.413783 13.130032zM517.727991 667.885235a270.694408 270.694408 0 0 1-75.166433-11.231277c-58.363892-16.880041-99.741492-46.660113-101.488996-47.920117-6.030015-4.375011-7.373768-12.812531-2.993758-18.847546 4.375011-6.030015 12.812531-7.367518 18.843796-2.992507a336.397067 336.397067 0 0 0 93.861478 44.042607c70.567671 20.220049 131.75907 10.107525 181.861692-30.038823 50.912624-40.786349 115.22403-48.355117 186.010452-21.836303a338.559572 338.559572 0 0 1 90.61147 51.616376c5.707514 4.795012 6.450016 13.305032 1.655004 19.013796-4.795012 5.707514-13.306282 6.450016-19.013796 1.655004a316.90952 316.90952 0 0 0-83.350203-47.236365c-61.987651-23.061306-115.492781-16.997541-159.019136 17.856293-38.041342 30.473824-82.748951 45.918862-131.81157 45.918862z m0 0M465.452864 802.079311c-54.043881 0-113.745276-11.933779-153.081622-46.347613-70.737672-61.88515-140.469091-13.657533-143.409098-11.562528-6.053765 4.18001-14.340035 2.738757-18.627546-3.237508-4.29251-5.976265-2.997507-14.287535 2.900007-18.681295a150.090365 150.090365 0 0 1 55.425135-22.378804c30.327574-5.717514 76.025185-4.18876 121.465295 35.562586 47.328865 41.401351 131.450319 44.960109 189.10671 35.366336 44.257608-7.335018 70.771422-21.713803 76.685186-31.953828 3.773759-6.337515 11.938779-8.471271 18.330044-4.785011 6.391266 3.686259 8.632521 11.821279 5.038763 18.261294-16.831291 29.165071-72.485176 41.24135-95.635233 45.08386a359.535873 359.535873 0 0 1-58.197641 4.672511z m0 0M851.927553 861.215705a13.412533 13.412533 0 0 1-7.128768-2.056255c-0.566251-0.346251-26.708815-16.31379-64.813907-24.52131-50.410122-10.845026-97.095236-3.676259-138.745337 21.308802a13.490033 13.490033 0 0 1-20.757551-11.265028 13.483783 13.483783 0 0 1 6.885017-11.855028c47.323865-28.393819 102.412749-36.807589 159.301637-24.33631 42.651354 9.355023 71.236423 27.055066 72.427676 27.802568a13.483783 13.483783 0 0 1 5.805014 15.161287 13.478783 13.478783 0 0 1-12.973781 9.761274z m0 0" fill="#203529" p-id="39764"></path></svg>