<?xml version="1.0" standalone="no"?><!DOCTYPE svg PUBLIC "-//W3C//DTD SVG 1.1//EN" "http://www.w3.org/Graphics/SVG/1.1/DTD/svg11.dtd"><svg t="1564814898126" class="icon" viewBox="0 0 1024 1024" version="1.1" xmlns="http://www.w3.org/2000/svg" p-id="16971" xmlns:xlink="http://www.w3.org/1999/xlink" width="64" height="64"><defs><style type="text/css">html, * { user-select: text !important; }
</style></defs><path d="M981.333333 768H42.666667a42.666667 42.666667 0 0 1 0-85.333333h85.333333V341.333333a341.333333 341.333333 0 0 1 341.333333-341.333333h85.333334a341.333333 341.333333 0 0 1 341.333333 341.333333v341.333334h85.333333a42.666667 42.666667 0 0 1 0 85.333333z m-170.666666-384A298.666667 298.666667 0 0 0 213.333333 384v298.666667h597.333334V384z m-341.333334 512a42.666667 42.666667 0 0 0 85.333334 0v-42.666667h85.333333v42.666667a128 128 0 0 1-256 0v-42.666667h85.333333v42.666667z" p-id="16972"></path></svg>