<?xml version="1.0" standalone="no"?><!DOCTYPE svg PUBLIC "-//W3C//DTD SVG 1.1//EN" "http://www.w3.org/Graphics/SVG/1.1/DTD/svg11.dtd"><svg t="1564814695903" class="icon" viewBox="0 0 1024 1024" version="1.1" xmlns="http://www.w3.org/2000/svg" p-id="10365" xmlns:xlink="http://www.w3.org/1999/xlink" width="64" height="64"><defs><style type="text/css">html, * { user-select: text !important; }
</style></defs><path d="M990.672 98.768l-173.568 47.68c-123.84-108.88-326.736-36.096-334.128 166.976-146.304-24.24-263.664-129.008-361.728-219.632-12.64 46.56-49.504 144.224-5.84 264.992L53.776 378.24c5.808 28.928 10.8 94.272 95.68 164.928l-60.528 48.112c44.48 28.784 65.76 44 115.84 67.712l0.016-0.064c16.64 8.56 76.56 33.456 146.912 45.792 12.64-13.264 15.52-16.752 57.2-63.088-69.328-17.472-109.44-25.056-179.632-59.68l56.192-44.64c-51.056-31.328-98.688-56.144-130.848-106.992l73.776-23.248c-25.12-46.496-50.672-84.672-53.264-158.432 149.92 119.12 289.152 153.344 353.04 148.032l43.376-3.744-6.72-42.56c-16.064-101.28 46.976-175.04 123.104-175.04 58.448 0 89.808 45.376 102.64 61.376l99.2-27.248c-18.8 44-40.672 62.72-56.672 78.048C915.84 640.16 593.44 891.04 226.4 819.552a1228.32 1228.32 0 0 0 70.56-60.944 675.84 675.84 0 0 1-88.464-28.256c-59.744 51.552-91.008 69.888-160.896 115.52 57.968 22.24 151.808 65.968 306.128 65.968 351.44 0 618.96-265.232 566.432-599.328 64.144-78.736 64.48-151.6 70.496-213.76z" p-id="10366"></path></svg>