<?xml version="1.0" standalone="no"?><!DOCTYPE svg PUBLIC "-//W3C//DTD SVG 1.1//EN" "http://www.w3.org/Graphics/SVG/1.1/DTD/svg11.dtd"><svg t="1564814925050" class="icon" viewBox="0 0 1024 1024" version="1.1" xmlns="http://www.w3.org/2000/svg" p-id="17769" xmlns:xlink="http://www.w3.org/1999/xlink" width="64" height="64"><defs><style type="text/css">html, * { user-select: text !important; }
</style></defs><path d="M955.915857 460.102003 587.020112 460.102003 432.741353 460.102003 63.845609 460.102003c0 0-38.148855 277.937127 217.989803 370.582153 0 0 24.524556 40.872896 0 43.597961-24.524556 2.724041-84.47188 59.947324 43.597961 65.396429 46.766117 0 91.343381 0 129.10645 0 0 0 45.032636 0 110.682845 0 37.759999 0 82.338287 0 129.104403 0 128.069841-5.449106 68.122517-62.672388 43.597961-65.396429-24.524556-2.725064 0-43.597961 0-43.597961C994.065735 738.039129 955.915857 460.102003 955.915857 460.102003z" p-id="17770"></path><path d="M683.897533 429.983032c0 0 243.661486-222.772736 250.622014-250.619968 6.962575-27.846208-17.403369-128.789225-111.38688-83.538625-93.984534 45.251623-362.006847 334.158592-362.006847 334.158592L683.897533 429.983032z" p-id="17771"></path><path d="M423.797657 280.037974m-72.897264 0a71.237 71.237 0 1 0 145.794527 0 71.237 71.237 0 1 0-145.794527 0Z" p-id="17772"></path><path d="M295.21514 145.357576m-55.769165 0a54.499 54.499 0 1 0 111.538329 0 54.499 54.499 0 1 0-111.538329 0Z" p-id="17773"></path><path d="M134.462946 232.022401m-37.086663 0a36.242 36.242 0 1 0 74.173326 0 36.242 36.242 0 1 0-74.173326 0Z" p-id="17774"></path></svg>