<?xml version="1.0" standalone="no"?><!DOCTYPE svg PUBLIC "-//W3C//DTD SVG 1.1//EN" "http://www.w3.org/Graphics/SVG/1.1/DTD/svg11.dtd"><svg t="1564814434079" class="icon" viewBox="0 0 1243 1024" version="1.1" xmlns="http://www.w3.org/2000/svg" p-id="3569" xmlns:xlink="http://www.w3.org/1999/xlink" width="77.6875" height="64"><defs><style type="text/css">html, * { user-select: text !important; }
</style></defs><path d="M1197.348571 424.594286l-132.827428-169.910857c-28.964571-37.010286-46.957714-59.392-93.403429-59.392h-232.96v-38.765715c0-98.962286-46.738286-155.282286-143.798857-155.282285H155.867429C58.806857 1.243429 0.585143 57.563429 0.585143 156.525714v543.451429c0 97.060571 60.708571 152.356571 155.282286 155.282286h5.558857a154.916571 154.916571 0 0 0 149.723428 116.443428c72.265143 0 132.461714-49.590857 149.796572-116.443428h360.374857a154.916571 154.916571 0 0 0 149.796571 116.443428c72.265143 0 132.388571-49.590857 149.723429-116.443428h122.002286V556.617143c0-47.835429-16.164571-94.72-45.421715-132.096zM311.222857 894.025143a77.604571 77.604571 0 1 1 0-155.282286 77.604571 77.604571 0 0 1 0 155.282286z m349.403429-116.443429H460.8A154.916571 154.916571 0 0 0 311.222857 661.211429c-72.265143 0-132.388571 49.590857-149.723428 116.443428H155.794286c-55.808 0-77.604571-20.699429-77.604572-77.604571V156.525714c0-56.978286 42.422857-79.213714 98.377143-79.213714h417.792c55.881143 0 66.121143 22.235429 66.121143 79.213714v621.056z m310.564571 116.443429a77.604571 77.604571 0 1 1 0-155.282286 77.604571 77.604571 0 0 1 0 155.282286z m194.048-116.443429h-44.324571a154.916571 154.916571 0 0 0-149.723429-116.443428c-72.338286 0-132.461714 49.590857-149.796571 116.443428h-83.163429v-504.685714h194.121143c23.698286 0 59.172571 10.459429 73.874286 29.257143l132.973714 169.764571c18.651429 24.137143 26.038857 42.130286 26.038857 72.777143v232.886857z m-155.282286-349.330285h-116.443428V350.573714a39.570286 39.570286 0 0 0-38.765714-38.765714 39.570286 39.570286 0 0 0-38.838858 38.765714v155.282286h194.048a39.570286 39.570286 0 0 0 38.838858-38.765714 39.570286 39.570286 0 0 0-38.765715-38.838857z" p-id="3570"></path></svg>