<?xml version="1.0" standalone="no"?><!DOCTYPE svg PUBLIC "-//W3C//DTD SVG 1.1//EN" "http://www.w3.org/Graphics/SVG/1.1/DTD/svg11.dtd"><svg t="1564814457181" class="icon" viewBox="0 0 1136 1024" version="1.1" xmlns="http://www.w3.org/2000/svg" p-id="4395" xmlns:xlink="http://www.w3.org/1999/xlink" width="71" height="64"><defs><style type="text/css">html, * { user-select: text !important; }
</style></defs><path d="M978.706732 468.642341c-45.268293-74.277463-128.474537-56.157659-211.793171 5.332293-23.452098 18.194732-52.386341 28.984195-81.420488 36.214634v1.848195c0 41.646829-19.880585 75.988293-50.57561 97.692098 56.132683 70.518634 157.458732 150.228293 293.15122 76.025756 75.913366-39.836098 95.793951-141.174634 50.638049-217.112976zM441.256585 365.493073c23.539512 10.851902 45.255805 27.061073 65.19883 45.130927 16.15922-8.966244 37.888-16.259122 59.641756-16.259122 19.905561 0 39.82361 7.230439 57.96839 14.535805 30.72-85.066927 45.180878-211.780683-88.700878-289.579707-74.190049-43.420098-170.121366-7.180488-209.907512 66.947122-39.848585 77.923902 19.893073 139.451317 115.799414 179.224975zM448.499512 530.082341c-90.461659 12.68761-206.298537 57.955902-213.466536 211.680781-3.633951 85.041951 72.391805 155.710439 159.269463 155.710439 86.790244 0 113.988683-81.420488 104.947512-184.619707-3.608976-30.744976 3.621463-63.313171 12.650147-92.284878-34.478829-18.057366-57.955902-50.712976-63.400586-90.486635zM568.270049 445.027902c-38.075317 0-67.022049 30.769951-67.022049 67.034537 0 36.139707 30.819902 66.909659 67.022049 66.909659 37.900488 0 66.872195-30.782439 66.872195-66.909659a66.734829 66.734829 0 0 0-66.872195-67.034537z" p-id="4396"></path></svg>