<?xml version="1.0" standalone="no"?><!DOCTYPE svg PUBLIC "-//W3C//DTD SVG 1.1//EN" "http://www.w3.org/Graphics/SVG/1.1/DTD/svg11.dtd"><svg t="1564814753404" class="icon" viewBox="0 0 1057 1024" version="1.1" xmlns="http://www.w3.org/2000/svg" p-id="12661" xmlns:xlink="http://www.w3.org/1999/xlink" width="66.0625" height="64"><defs><style type="text/css">html, * { user-select: text !important; }
</style></defs><path d="M1044.254945 803.446154L911.472527 571.63956h1.125275c27.006593 0 51.762637-14.628571 66.391209-38.25934 13.503297-23.630769 13.503297-52.887912 0-76.518682l-239.683516-416.351648C725.802198 16.879121 701.046154 2.250549 672.914286 2.250549S621.151648 16.879121 607.648352 40.50989L453.485714 309.450549l-69.767033-120.404395c-12.378022-22.505495-36.008791-34.883516-60.764835-34.883517-25.881319 0-48.386813 13.503297-60.764835 34.883517L66.391209 530.004396c-12.378022 22.505495-12.378022 48.386813 0 70.892307 11.252747 19.12967 28.131868 31.507692 49.512088 34.883517l-103.525275 180.043956c-12.378022 22.505495-12.378022 48.386813 0 70.892308s36.008791 34.883516 60.764835 34.883516h150.786813V978.989011c0 23.630769 19.12967 42.76044 42.76044 42.76044h112.527472c23.630769 0 42.76044-19.12967 42.76044-42.76044v-58.514286h120.404396V978.989011c0 23.630769 19.12967 42.76044 42.760439 42.76044h174.417583c23.630769 0 42.76044-19.12967 42.760439-42.76044v-61.89011H978.989011c28.131868 0 51.762637-14.628571 66.391209-38.259341 13.503297-23.630769 13.503297-51.762637-1.125275-75.393406zM336.457143 920.474725v15.753846h-27.006594v-15.753846h27.006594z m381.468132 0v15.753846H630.153846v-15.753846h87.771429zM214.927473 634.654945h102.4c23.630769 0 42.76044-19.12967 42.760439-42.76044s-19.12967-42.76044-42.760439-42.760439H155.287912l168.791209-293.696703 168.791209 293.696703h-34.883517c-15.753846 0-29.257143 7.876923-37.134066 21.38022-7.876923 13.503297-7.876923 30.382418 0 42.760439L546.883516 832.703297H101.274725l113.652748-198.048352z m365.714285-34.883516c4.501099-7.876923 7.876923-16.879121 9.002198-25.881319h111.402198c23.630769 0 42.76044-19.12967 42.760439-42.76044 0-23.630769-19.12967-42.76044-42.760439-42.760439H555.885714l-52.887912-92.272528L674.03956 99.024176 895.718681 483.868132h-58.514285c-15.753846 0-29.257143 7.876923-37.134066 21.38022-7.876923 13.503297-7.876923 30.382418 0 42.760439l162.03956 281.318682H641.406593c-1.125275-5.626374-3.375824-11.252747-6.751648-16.879121l-103.525275-180.043956c21.38022-1.125275 39.384615-13.503297 49.512088-32.632967z" p-id="12662"></path></svg>