<?xml version="1.0" standalone="no"?><!DOCTYPE svg PUBLIC "-//W3C//DTD SVG 1.1//EN" "http://www.w3.org/Graphics/SVG/1.1/DTD/svg11.dtd"><svg t="1564814768848" class="icon" viewBox="0 0 1152 1024" version="1.1" xmlns="http://www.w3.org/2000/svg" p-id="13478" xmlns:xlink="http://www.w3.org/1999/xlink" width="72" height="64"><defs><style type="text/css">html, * { user-select: text !important; }
</style></defs><path d="M893.06294 194.86C879.34294 120.46 814.38294 64 736.00294 64c-78.46 0-143.44 56.58-157.08 131.08C253.50294 225.92-0.99706 500.24 0.00294 833.96 0.22294 903.8 58.16294 960 128.00294 960h608c17.68 0 32-14.32 32-32 0-35.34-28.66-64-64-64h-158.98l71.6-96.66c48.28-72.46 20.7-176.56-67.42-213.2-47.78-19.86-103.1-9.3-144.48 21.76l-65.52 49.18c-14.12 10.62-34.18 7.82-44.82-6.38-10.6-14.16-7.76-34.22 6.38-44.82l69.56-52.18c73.68-55.32 176.56-55.24 250.26 0 21.74 16.3 91.74 78.12 81.6 186.42L939.24294 960H1120.00294c17.68 0 32-14.32 32-32 0-35.34-28.66-64-64-64h-107.26l-197.04-209.36 308.88-173.3A116.32 116.32 0 0 0 1152.00294 379.88c0-42.8-23.44-81.9-60.96-102.46-81.12-44.44-197.98-82.56-197.98-82.56zM736.00294 272c-26.52 0-48-21.5-48-48 0-26.52 21.48-48 48-48 26.5 0 48 21.48 48 48 0 26.5-21.5 48-48 48z" fill="" p-id="13479"></path></svg>