<?xml version="1.0" standalone="no"?><!DOCTYPE svg PUBLIC "-//W3C//DTD SVG 1.1//EN" "http://www.w3.org/Graphics/SVG/1.1/DTD/svg11.dtd"><svg t="1564814783131" class="icon" viewBox="0 0 1024 1024" version="1.1" xmlns="http://www.w3.org/2000/svg" p-id="13639" xmlns:xlink="http://www.w3.org/1999/xlink" width="64" height="64"><defs><style type="text/css">html, * { user-select: text !important; }
</style></defs><path d="M896 85.333333c0 21.504 1.493333 73.173333-5.333333 118.656-3.328 22.826667-8.832 44.373333-16 57.344-0.981333 1.834667-1.706667 2.517333-2.688 4.010667-4.138667-37.162667-14.506667-68.522667-34.645334-92.032C811.52 143.061333 772.181333 128 725.333333 128v42.666667c38.485333 0 63.146667 11.008 80 30.677333 15.36 18.005333 25.173333 46.506667 26.666667 86.656l-116.010667 72.021333-49.322666 30.634667L512 486.656l52.010667 116.010667-84.010667-96h-1.322667L256 256H170.666667v445.354667l-93.354667 58.666666c29.525333 17.322667 61.354667 31.146667 93.354667 41.301334V853.333333H85.333333v85.333334h170.666667v-120.021334c82.346667 8.533333 167.168-6.656 245.333333-50.645333H554.666667v170.666667h128v-85.333334h-42.666667v-170.666666h-32c13.994667-15.488 27.306667-31.018667 38.656-48l49.322667 27.989333 30.72 116.010667 7.978666 32H853.333333v-85.333334h-52.010666l-26.666667-100.010666-3.968-17.322667-16-9.344-69.333333-39.978667c12.458667-31.146667 20.309333-63.829333 25.301333-97.322666L789.333333 587.946667c93.866667-58.837333 127.317333-181.333333 94.677334-277.333334 11.818667-7.168 21.504-17.664 27.989333-29.312 11.52-20.693333 17.493333-45.184 21.333333-70.698666C940.842667 159.658667 938.666667 104.533333 938.666667 85.333333z m-64 298.666667c11.818667 0 21.333333 9.514667 21.333333 21.333333s-9.514667 21.333333-21.333333 21.333334a21.248 21.248 0 0 1-21.333333-21.333334c0-11.818667 9.514667-21.333333 21.333333-21.333333zM256 433.322667l97.322667 153.344L256 648.021333z" fill="#797F7E" p-id="13640"></path></svg>