<?xml version="1.0" standalone="no"?><!DOCTYPE svg PUBLIC "-//W3C//DTD SVG 1.1//EN" "http://www.w3.org/Graphics/SVG/1.1/DTD/svg11.dtd"><svg t="1564814707765" class="icon" viewBox="0 0 1024 1024" version="1.1" xmlns="http://www.w3.org/2000/svg" p-id="10520" xmlns:xlink="http://www.w3.org/1999/xlink" width="64" height="64"><defs><style type="text/css">html, * { user-select: text !important; }
</style></defs><path d="M85.333333 85.333333s170.666667 42.666667 170.666667 213.333334c0 127.829333-170.666667 232.149333-170.666667 384 0 196.48 128 256 128 256h640s-384-128-384-341.333334c0-128 42.666667-170.666667 42.666667-298.666666 0-170.666667-256-213.333333-256-213.333334z m628.010667 1.322667s-19.84 42.197333-20.010667 42.666667c-41.984 1.322667-81.834667 27.306667-97.322666 69.333333l-37.333334 101.333333a107.434667 107.434667 0 0 0 64 137.344c55.338667 20.352 115.626667-8.661333 135.978667-64l37.333333-100.010666A107.306667 107.306667 0 0 0 779.989333 170.666667c0.170667 0.981333 20.010667-45.354667 20.010667-45.354667zM938.666667 256s-213.845333 127.317333-213.333334 561.322667c30.165333 17.194667 59.648 32.341333 85.333334 44.032C810.325333 469.12 938.666667 256 938.666667 256z m-361.344 210.688a1445.888 1445.888 0 0 0-21.333334 209.322667 423.68 423.68 0 0 0 84.010667 85.333333c0.512-103.338667 11.008-194.176 26.666667-273.365333a104.405333 104.405333 0 0 1-58.666667-3.968 104.490667 104.490667 0 0 1-30.677333-17.322667z m354.688 171.946667c-13.354667-0.469333-43.861333 2.56-70.698667 33.365333-2.816 29.354667-3.968 60.501333-5.333333 93.354667C939.050667 681.514667 938.666667 640 938.666667 640s-2.133333-1.152-6.656-1.322667z" fill="#797F7E" p-id="10521"></path></svg>