<?xml version="1.0" standalone="no"?><!DOCTYPE svg PUBLIC "-//W3C//DTD SVG 1.1//EN" "http://www.w3.org/Graphics/SVG/1.1/DTD/svg11.dtd"><svg t="1564814811699" class="icon" viewBox="0 0 1024 1024" version="1.1" xmlns="http://www.w3.org/2000/svg" p-id="14569" xmlns:xlink="http://www.w3.org/1999/xlink" width="64" height="64"><defs><style type="text/css">html, * { user-select: text !important; }
</style></defs><path d="M893.6 155.04a32 32 0 0 0-24.64-24.8A839.36 839.36 0 0 0 694.88 112c-128 0-295.36 30.08-424 158.72-224 224-147.68 569.76-136.96 613.44a8.48 8.48 0 0 0 5.92 5.92A819.84 819.84 0 0 0 329.92 912c128 0 296.96-30.4 427.04-160 201.28-201.76 153.44-515.36 136.64-596.96z m-480 105.6a457.6 457.6 0 0 1 93.6-41.28A613.12 613.12 0 0 1 694.88 192a746.24 746.24 0 0 1 77.28 4l-103.04 104-310.24-1.28a448 448 0 0 1 54.88-38.08zM193.28 667.68a593.92 593.92 0 0 1 32-176 448 448 0 0 1 58.88-113.76l306.24 1.28-393.44 396.8a763.84 763.84 0 0 1-3.68-108.32zM474.08 816a649.6 649.6 0 0 1-144 16c-26.24 0-50.56-1.44-72.32-3.52l216.32-218.4zM830.4 353.44A610.24 610.24 0 0 1 800 531.2a419.84 419.84 0 0 1-99.68 163.84 437.6 437.6 0 0 1-87.52 67.52 467.84 467.84 0 0 1-58.88 28.96V529.44L827.2 254.08a797.76 797.76 0 0 1 3.2 99.36z" p-id="14570"></path></svg>