<?xml version="1.0" standalone="no"?><!DOCTYPE svg PUBLIC "-//W3C//DTD SVG 1.1//EN" "http://www.w3.org/Graphics/SVG/1.1/DTD/svg11.dtd"><svg t="1564815045045" class="icon" viewBox="0 0 1024 1024" version="1.1" xmlns="http://www.w3.org/2000/svg" p-id="21383" xmlns:xlink="http://www.w3.org/1999/xlink" width="64" height="64"><defs><style type="text/css">html, * { user-select: text !important; }
</style></defs><path d="M781.357 725.704c-24.487 0-44.522-17.808-44.522-42.295V342.817c-2.226-24.487 17.808-46.747 42.295-48.974 24.487-2.226 46.748 17.81 48.974 42.296v347.27c-2.226 24.487-22.26 42.295-46.747 42.295z m133.565-84.591c-24.487 0-44.522-17.809-44.522-42.296V427.41c0-24.487 17.809-44.522 42.296-44.522 22.26 0 42.295 17.809 44.521 40.07V596.59c-2.226 24.487-20.034 42.296-44.521 42.296l2.226 2.226zM244.87 768c-24.487 0-44.522-17.809-44.522-42.296V300.522c0-24.487 17.809-44.522 42.295-44.522 22.261 0 42.296 17.809 44.522 40.07v431.86c-2.226 24.487-20.035 42.296-44.522 42.296L244.87 768z m133.565 171.409c-24.487 0-44.522-17.809-44.522-42.296V131.339c0-24.487 17.809-46.748 44.522-46.748 24.487-2.226 46.748 17.809 46.748 42.296v770.226c-2.226 24.487-22.261 42.296-46.748 42.296zM512 768c-24.487 0-44.522-17.809-44.522-42.296V300.522c0-24.487 17.809-44.522 42.296-44.522 22.26 0 42.296 17.809 44.522 40.07v429.634C552.07 750.191 534.26 768 509.774 768H512z m135.791-126.887c-24.487 0-44.521-17.809-44.521-42.296V427.41c-2.227-24.487 17.808-46.748 42.295-46.748 24.487-2.226 46.748 17.809 46.748 42.296V596.59c-2.226 24.487-22.26 44.522-44.522 44.522z m-536.487 0c-24.487 0-44.521-17.809-44.521-42.296V427.41c0-24.487 17.808-44.522 42.295-44.522 22.261 0 42.296 17.809 44.522 40.07V596.59c-2.226 24.487-22.26 42.296-44.522 42.296l2.226 2.226z" p-id="21384"></path></svg>