<?xml version="1.0" standalone="no"?><!DOCTYPE svg PUBLIC "-//W3C//DTD SVG 1.1//EN" "http://www.w3.org/Graphics/SVG/1.1/DTD/svg11.dtd"><svg t="1564814958023" class="icon" viewBox="0 0 1024 1024" version="1.1" xmlns="http://www.w3.org/2000/svg" p-id="18465" xmlns:xlink="http://www.w3.org/1999/xlink" width="64" height="64"><defs><style type="text/css">html, * { user-select: text !important; }
</style></defs><path d="M726.581225 820.187096c-21.087961 0-38.249973-17.162011-38.249973-38.249973V359.168365c0-21.087961 17.162011-38.249973 38.249973-38.249973s38.249973 17.162011 38.249972 38.249973v422.768758c0.11217 21.087961-17.162011 38.249973-38.249972 38.249973zM841.443313 743.687151c-21.087961 0-38.249973-17.162011-38.249973-38.249973V420.749699c0-21.087961 17.162011-38.249973 38.249973-38.249973s38.249973 17.162011 38.249972 38.249973v284.575309c0 21.087961-17.162011 38.362143-38.249972 38.362143z m-574.0861 99.831307c-21.087961 0-38.249973-17.162011-38.249972-38.249973V305.999781c0-21.087961 17.162011-38.249973 38.249972-38.249973S305.607186 284.911819 305.607186 305.999781v499.268704c0.11217 21.087961-17.162011 38.249973-38.249973 38.249973z m114.862088 93.213276c-21.087961 0-38.249973-17.162011-38.249972-38.249973V227.592946c0-21.087961 17.162011-38.249973 38.249972-38.249973s38.249973 17.162011 38.249973 38.249973V898.481761c0 21.087961-17.162011 38.249973-38.249973 38.249973z m114.749918-78.294665c-21.087961 0-38.249973-17.162011-38.249973-38.249973V320.918392c0-21.087961 17.162011-38.249973 38.249973-38.249973s38.249973 17.162011 38.249973 38.249973v499.268704c0.11217 21.087961-17.162011 38.249973-38.249973 38.249973z m114.862088-54.963304c-21.087961 0-38.249973-17.162011-38.249973-38.249973V390.800307c0-21.087961 17.162011-38.249973 38.249973-38.249973s38.249973 17.162011 38.249972 38.249973v374.311315c0 21.087961-17.162011 38.362143-38.249972 38.362143zM152.607295 743.687151c-21.087961 0-38.249973-17.162011-38.249972-38.249973V405.831088c0-21.087961 17.162011-38.249973 38.249972-38.249973s38.249973 17.162011 38.249973 38.249973v299.60609c0 20.975791-17.162011 38.249973-38.249973 38.249973z" p-id="18466"></path><path d="M744.416256 762.643882H249.634352c-9.870961 0-17.947201-8.076241-17.947201-17.947201V403.812028c0-9.870961 8.076241-17.947201 17.947201-17.947202h494.781904c9.870961 0 17.947201 8.076241 17.947201 17.947202v340.884653c0 9.870961-8.076241 17.947201-17.947201 17.947201z" p-id="18467"></path></svg>