<?xml version="1.0" standalone="no"?><!DOCTYPE svg PUBLIC "-//W3C//DTD SVG 1.1//EN" "http://www.w3.org/Graphics/SVG/1.1/DTD/svg11.dtd"><svg t="1564814547110" class="icon" viewBox="0 0 1025 1024" version="1.1" xmlns="http://www.w3.org/2000/svg" p-id="6106" xmlns:xlink="http://www.w3.org/1999/xlink" width="64.0625" height="64"><defs><style type="text/css">html, * { user-select: text !important; }
</style></defs><path d="M971.718 537.274L732.557 230.697c-0.074-0.09-0.148-0.173-0.221-0.263-0.271-0.34-0.563-0.661-0.852-0.983-0.242-0.267-0.475-0.541-0.725-0.791a19.053 19.053 0 0 0-0.853-0.805c-0.281-0.255-0.551-0.523-0.842-0.762-0.276-0.233-0.567-0.435-0.848-0.648-0.315-0.233-0.621-0.478-0.941-0.692-0.296-0.195-0.601-0.37-0.91-0.548-0.315-0.19-0.636-0.393-0.962-0.565-0.329-0.166-0.674-0.315-1.01-0.465-0.315-0.141-0.625-0.29-0.939-0.415-0.35-0.139-0.715-0.246-1.07-0.359-0.319-0.103-0.64-0.213-0.965-0.297-0.341-0.088-0.685-0.148-1.029-0.22-0.36-0.071-0.72-0.149-1.079-0.197-0.314-0.042-0.63-0.065-0.951-0.09a17.18 17.18 0 0 0-1.207-0.078c-0.099 0-0.19-0.017-0.294-0.017H22.569c-5.723 0-11.21 2.745-15.254 7.64C3.271 235.031 1 241.659 1 248.579v541.754c0 12.277 7.084 22.891 17.009 25.486 3.522 2.817 7.656 4.324 11.881 4.318h865.695c71.366 0 129.415-70.188 129.415-156.463 0-51.877-21.018-97.921-53.282-126.4zM768.27 507.227H626.523V361.943h144.828c1.345 0 2.66-0.172 3.941-0.458l113.691 145.741H768.27zM895.585 767.99H44.135V274.662h663.417l27.407 35.123H604.954c-5.719 0-11.205 2.75-15.249 7.639-4.05 4.889-6.32 11.524-6.32 18.437v197.438c0 6.913 2.271 13.546 6.32 18.435 4.044 4.891 9.53 7.641 15.249 7.641h290.631c16.965-0.021 33.555 6.038 47.667 17.419l0.369 0.472c1.861 2.382 4.078 4.311 6.532 5.692 19.344 19.146 31.713 48.216 31.713 80.718 0 57.525-38.708 104.314-86.281 104.314z m0 0" p-id="6107"></path><path d="M275.243 309.791H111.929c-11.917 0-21.571 11.672-21.571 26.078V533.3c0 6.918 2.271 13.552 6.315 18.441 4.049 4.888 9.532 7.634 15.256 7.634h163.308c5.724 0 11.207-2.746 15.255-7.634 4.044-4.89 6.315-11.523 6.315-18.441V335.868c0.005-6.92-2.271-13.549-6.315-18.444-4.043-4.889-9.531-7.633-15.249-7.633z m-21.571 197.436H133.499V361.943h120.173v145.284z m268.081-197.436H358.439c-5.718 0-11.206 2.744-15.25 7.639-4.044 4.889-6.32 11.518-6.32 18.438v197.431c0 6.918 2.276 13.552 6.32 18.441 4.044 4.888 9.532 7.634 15.25 7.634h163.314c5.72 0 11.207-2.746 15.251-7.634 4.043-4.89 6.314-11.523 6.314-18.441V335.868c0.005-6.92-2.267-13.549-6.311-18.444-4.047-4.889-9.53-7.633-15.254-7.633z m-21.569 197.436H380.009V361.943h120.174v145.284z m387.009 357.62H22.594c-11.915 0-21.569 11.677-21.569 26.076C1.025 905.329 10.68 917 22.594 917h864.599c11.909 0 21.563-11.671 21.563-26.077 0.001-14.4-9.653-26.076-21.563-26.076z m-7.015 0" p-id="6108"></path></svg>