<?xml version="1.0" standalone="no"?><!DOCTYPE svg PUBLIC "-//W3C//DTD SVG 1.1//EN" "http://www.w3.org/Graphics/SVG/1.1/DTD/svg11.dtd"><svg t="1564815256585" class="icon" viewBox="0 0 1024 1024" version="1.1" xmlns="http://www.w3.org/2000/svg" p-id="27316" xmlns:xlink="http://www.w3.org/1999/xlink" width="64" height="64"><defs><style type="text/css">html, * { user-select: text !important; }
</style></defs><path d="M783.6544 265.2288C772.8 127.0528 657.2288 17.92 516.6336 17.92S260.48 127.04 249.6 265.1904h-0.8832c-119.8976 0-217.4336 97.8048-217.4336 218.0224 0 120.2176 97.536 218.0224 217.4336 218.0224h533.1712c119.8848 0 217.4208-97.8048 217.4208-218.0224 0.0128-119.6288-96.576-217.024-215.6544-217.984z m-1.7536 385.664H248.7168c-92.1984 0-167.1936-75.2128-167.1936-167.6672s74.9952-167.6672 167.1936-167.6672h21.2224a24.96 24.96 0 0 0 19.52-9.5104c5.7344-4.6208 9.4592-11.6096 9.4592-19.5456 0-120.3072 97.664-218.2016 217.7024-218.2016 120.0512 0 217.7024 97.8944 217.7024 218.2016 0 0.6656 0.1408 1.2928 0.192 1.9456-0.0512 0.6528-0.192 1.2672-0.192 1.9456a25.1392 25.1392 0 0 0 25.1136 25.1776h22.4384c92.1856 0 167.1936 75.2256 167.1936 167.6672 0.0128 92.4416-74.9824 167.6544-167.168 167.6544z m-268.1728 102.3616c-16.5888 9.9968-56.0512 34.8672-64.0768 49.728a39.424 39.424 0 0 0 15.8848 53.2736 39.168 39.168 0 0 0 53.1328-15.9232c7.9872-14.8096 7.0912-61.5552 6.336-80.9856-0.2176-5.376-6.7072-8.8704-11.2768-6.0928z m-106.3296 145.1008c-16.6016 10.0224-56.0768 34.9184-64.064 49.728a39.424 39.424 0 0 0 15.8848 53.2736 39.232 39.232 0 0 0 53.1456-15.9232c7.9744-14.8352 7.0784-61.5552 6.3232-80.9728-0.2432-5.3888-6.6432-8.9088-11.2896-6.1056z m0 0" fill="#666666" p-id="27317"></path></svg>