<?xml version="1.0" standalone="no"?><!DOCTYPE svg PUBLIC "-//W3C//DTD SVG 1.1//EN" "http://www.w3.org/Graphics/SVG/1.1/DTD/svg11.dtd"><svg t="1564814602246" class="icon" viewBox="0 0 1024 1024" version="1.1" xmlns="http://www.w3.org/2000/svg" p-id="7069" xmlns:xlink="http://www.w3.org/1999/xlink" width="64" height="64"><defs><style type="text/css">html, * { user-select: text !important; }
</style></defs><path d="M224.6656 723.7632h15.1552v-75.5712h30.3104v-14.9504h-45.4656v90.5216zM905.216 261.5296C905.216 140.9024 827.392 43.008 731.136 43.008c-96.0512 0-173.8752 97.8944-173.8752 218.5216 0 111.0016 65.9456 165.0688 151.1424 173.056v108.3392c-50.7904 3.8912-90.7264 45.8752-90.7264 97.4848V882.688c0 54.272 44.032 98.304 98.304 98.304h30.1056c54.272 0 98.304-44.032 98.304-98.304V640.6144c0-51.6096-40.1408-93.5936-90.7264-97.4848v-108.3392c85.6064-8.192 151.552-62.2592 151.552-173.2608z m-105.8816 379.0848V882.688c0 29.0816-23.7568 52.8384-53.0432 52.8384h-30.1056c-29.2864 0-52.8384-23.7568-52.8384-52.8384V640.6144c0-29.2864 23.552-53.0432 52.8384-53.0432h30.1056c29.4912 0 53.0432 23.7568 53.0432 53.0432zM731.136 391.168c-71.0656 0-128.6144-37.6832-128.6144-129.2288s57.5488-173.4656 128.6144-173.4656c71.0656 0 128.6144 81.92 128.6144 173.4656 0 91.3408-57.344 129.2288-128.6144 129.2288zM383.3856 50.7904c-12.4928 0-22.7328 10.24-22.7328 22.7328v166.2976h-1.024c-2.8672 24.1664-17.8176 38.912-36.6592 38.912s-33.9968-14.7456-36.6592-38.912h-1.2288V68.8128c0-14.1312-10.0352-25.6-22.7328-25.6-12.4928 0-22.7328 11.4688-22.7328 25.6v171.008h-1.024c-2.8672 24.1664-17.8176 38.912-36.6592 38.912s-33.792-14.7456-36.6592-38.912h-1.2288V73.5232c0-12.4928-10.24-22.7328-22.7328-22.7328s-22.7328 10.24-22.7328 22.7328v211.7632c0 50.176 40.5504 90.7264 90.7264 90.7264H239.616v167.1168c-50.5856 3.8912-90.7264 45.8752-90.7264 97.4848V882.688c0 54.272 44.032 98.304 98.304 98.304h30.3104c54.272 0 98.304-44.032 98.304-98.304V640.6144c0-51.8144-40.1408-93.5936-90.7264-97.4848v-167.1168H315.392c50.176 0 90.7264-40.5504 90.7264-90.7264V73.5232c0-12.6976-10.24-22.7328-22.7328-22.7328z m-52.8384 589.824V882.688c0 29.0816-23.7568 52.8384-52.8384 52.8384h-30.3104c-29.2864 0-53.0432-23.7568-53.0432-52.8384V640.6144c0-29.2864 23.7568-53.0432 53.0432-53.0432h30.3104c29.0816 0 52.8384 23.7568 52.8384 53.0432z m362.9056 83.1488h15.1552v-75.5712h30.3104v-14.9504h-45.4656v90.5216z m0 0" p-id="7070"></path></svg>