<?xml version="1.0" standalone="no"?><!DOCTYPE svg PUBLIC "-//W3C//DTD SVG 1.1//EN" "http://www.w3.org/Graphics/SVG/1.1/DTD/svg11.dtd"><svg t="1564815338744" class="icon" viewBox="0 0 1074 1024" version="1.1" xmlns="http://www.w3.org/2000/svg" p-id="33032" xmlns:xlink="http://www.w3.org/1999/xlink" width="67.125" height="64"><defs><style type="text/css">html, * { user-select: text !important; }
</style></defs><path d="M783.908511 97.540197h-359.659016a18.448787 18.448787 0 0 0-18.415213 18.490754c0 10.206426 8.250754 18.490754 18.415213 18.490754h359.659016a18.448787 18.448787 0 0 0 18.415214-18.490754 18.448787 18.448787 0 0 0-18.415214-18.490754z" fill="#000000" p-id="33033"></path><path d="M1072.57579 377.117377l-127.336918-269.026623a18.40682 18.40682 0 0 0-16.62741-10.550557h-83.330098a18.448787 18.448787 0 0 0-18.40682 18.490754c0 10.206426 8.242361 18.482361 18.415213 18.48236h71.68l109.836591 232.045115H47.55179l109.83659-232.045115h28.730754v102.626623c0 10.21482 8.242361 18.490754 18.415214 18.490755h166.93718a18.448787 18.448787 0 0 0 18.415213-18.490755V20.21141A18.448787 18.448787 0 0 0 371.471528 1.720656h-166.945574a18.448787 18.448787 0 0 0-18.40682 18.490754v77.328787h-40.364065c-7.100852 0-13.572197 4.112787-16.62741 10.550557L1.782348 377.117377a18.549508 18.549508 0 0 0 1.065967 17.810885 18.398426 18.398426 0 0 0 15.569836 8.620066h59.677377v600.248656c0 10.21482 8.242361 18.490754 18.415213 18.490754h881.345049a18.448787 18.448787 0 0 0 18.415213-18.490754V403.539934h59.677377c6.320262 0 12.195672-3.256656 15.569836-8.620065a18.549508 18.549508 0 0 0 1.057574-17.810885zM222.941167 38.69377h130.115148v179.95541H222.941167V38.69377z m736.507803 946.61246h-68.742295V680.859279a18.448787 18.448787 0 0 0-18.415213-18.490754 18.448787 18.448787 0 0 0-18.415213 18.490754v304.446951H666.668905V536.651541h187.207344v82.583082c0 10.206426 8.242361 18.490754 18.415213 18.490754a18.448787 18.448787 0 0 0 18.415213-18.490754V518.160787a18.448787 18.448787 0 0 0-18.415213-18.490754H648.253692a18.448787 18.448787 0 0 0-18.415213 18.490754v467.137049H114.917561V403.539934h844.523016v581.766296z" fill="#000000" p-id="33034"></path><path d="M810.91861 561.303082H709.626544a18.448787 18.448787 0 0 0-18.415213 18.490754v362.370098c0 10.21482 8.250754 18.490754 18.415213 18.490755h101.292066a18.448787 18.448787 0 0 0 18.415213-18.490755V579.793836a18.448787 18.448787 0 0 0-18.415213-18.490754z m-18.415213 362.370098h-64.46164v-51.770754h64.46164v51.770754z m0-88.743869h-64.46164v-55.463868h64.46164v55.463868z m0-92.436983h-64.46164v-55.472262h64.46164v55.472262z m0-92.445377h-64.46164v-51.770754h64.46164v51.770754zM532.273102 753.580066h-9.820328V518.160787a18.448787 18.448787 0 0 0-18.415213-18.490754H214.346282a18.448787 18.448787 0 0 0-18.415213 18.490754v235.419279h-9.820328a18.448787 18.448787 0 0 0-18.40682 18.490754v61.624655c0 10.21482 8.242361 18.490754 18.415213 18.490755h30.686427a18.448787 18.448787 0 0 0 18.415213-18.490755 18.448787 18.448787 0 0 0-18.415213-18.48236h-12.279607v-24.651541h309.331935v24.651541H265.9072a18.448787 18.448787 0 0 0-18.415213 18.48236c0 10.21482 8.242361 18.490754 18.415213 18.490755h266.365902a18.448787 18.448787 0 0 0 18.415213-18.490755v-61.624655a18.448787 18.448787 0 0 0-18.415213-18.490754z m-191.488 0H232.753102v-89.977705h108.023606v89.977705z m0-126.95082H232.753102v-89.977705h108.023606v89.977705z m144.845639 126.95082h-108.023607v-89.977705h108.023607v89.977705z m0-126.95082h-108.023607v-89.977705h108.023607v89.977705z" fill="#000000" p-id="33035"></path></svg>