<?xml version="1.0" standalone="no"?><!DOCTYPE svg PUBLIC "-//W3C//DTD SVG 1.1//EN" "http://www.w3.org/Graphics/SVG/1.1/DTD/svg11.dtd"><svg t="1564815209319" class="icon" viewBox="0 0 1024 1024" version="1.1" xmlns="http://www.w3.org/2000/svg" p-id="24428" xmlns:xlink="http://www.w3.org/1999/xlink" width="64" height="64"><defs><style type="text/css">html, * { user-select: text !important; }
</style></defs><path d="M271.5 730.6c-4 0-7.8-0.2-11.1-0.4-2.7-0.1-5.2-0.3-7.4-0.3-49.4-0.1-96-18.4-131.1-51.4-35.7-33.6-55.4-78.5-55.2-126.2 0.1-43.4 14.5-83.8 40.4-113.7 19.7-22.8 45-38.6 74.3-46.9-4.2-15.8-7.4-32.5-7.4-48.7 0-73.5 28.6-142.6 80.5-194.5 51.9-52 120.9-80.6 194.4-80.6 68.1 0 133.4 25.1 183.9 70.7 40.1 36.2 68.4 82.9 81.9 134.4 8.9-1.1 17.9-1.7 27-1.7 58.5 0.2 113.4 24.4 154.5 68.4 40.5 43.3 62.7 100.7 62.5 161.5-0.2 60.8-22.7 118-63.4 161.1-41.2 43.6-95.9 67.6-154.3 67.6h-57.3c-19.9 0-36-16.1-36-36s16.1-36 36-36h57c38.5 0.1 74.8-15.9 102.3-45 28.1-29.7 43.6-69.5 43.7-111.9 0.2-86.7-64.9-157.4-145.2-157.6-14.9-0.1-29.7 2.4-43.8 7.1l-42.4 14.3-4.9-44.4C639 217.5 552.3 139.9 448.8 139.9 337 139.9 246 231.1 246 343.1c0 16.2 7.5 39.5 13.5 58.1 1 3.1 2 6.2 2.9 9.1l14.4 45.7-47.9 1.1c-66.3 1.5-90 52.3-90.1 95.4-0.1 58 51.2 105.3 114.5 105.4 4.1 0 7.8 0.2 11.1 0.4 3.9 0.2 8.3 0.5 10.3 0.1l3-0.5h21c19.9 0 36 16.1 36 36s-16.1 36-36 36h-15.4c-4.2 0.5-8.1 0.7-11.8 0.7z m368.8 216.7l76.4-89.6c12.9-15.1 11.1-37.9-4-50.8-15.1-12.9-37.9-11.1-50.8 4l-76.4 89.6c-12.9 15.1-11.1 37.9 4 50.8 6.8 5.8 15.1 8.6 23.3 8.6 10.3 0 20.4-4.3 27.5-12.6z m-386.2 0l76.4-89.6c12.9-15.1 11.1-37.9-4-50.8-15.1-12.9-37.9-11.1-50.8 4l-76.4 89.6c-12.9 15.1-11.1 37.9 4 50.8 6.8 5.8 15.1 8.6 23.3 8.6 10.3 0 20.4-4.3 27.5-12.6z m196.3-1l123.1-154.7c8.6-10.8 10.3-25.6 4.3-38.1-6-12.4-18.6-20.4-32.4-20.4h-54l83.5-119.5c11.4-16.3 7.4-38.7-8.9-50.1-16.3-11.4-38.7-7.4-50.1 8.9L392.8 748.6c-7.7 11-8.6 25.4-2.4 37.3s18.5 19.4 31.9 19.4h48.5l-76.6 96.3c-12.4 15.6-9.8 38.2 5.8 50.6 6.6 5.3 14.5 7.8 22.4 7.8 10.4-0.1 20.9-4.7 28-13.7z" fill="" p-id="24429"></path></svg>