<?xml version="1.0" standalone="no"?><!DOCTYPE svg PUBLIC "-//W3C//DTD SVG 1.1//EN" "http://www.w3.org/Graphics/SVG/1.1/DTD/svg11.dtd"><svg t="1564814647726" class="icon" viewBox="0 0 1024 1024" version="1.1" xmlns="http://www.w3.org/2000/svg" p-id="8564" xmlns:xlink="http://www.w3.org/1999/xlink" width="64" height="64"><defs><style type="text/css">html, * { user-select: text !important; }
</style></defs><path d="M831.906092 128.273694a213.666269 213.666269 0 0 1-44.985365 132.965594c-29.999722 39.32665-68.302685 66.312182-114.965761 80.956597v10.009386h159.951126V384.195496a213.666269 213.666269 0 0 1-44.985365 132.965594c-29.999722 39.32665-68.302685 66.312182-114.965761 80.956596v10.009386h159.951126V640.117297c0 53.317042-16.663353 99.980117-49.990059 139.96079-33.326706 39.980673-75.297881 65.316931-125.970397 75.98034-18.653856 50.644081-49.64883 91.278776-92.956486 121.960956-43.307656 30.653745-92.302463 45.980617-146.955986 45.980617-54.653523 0-103.64833-15.355308-146.955985-45.980617-43.307656-30.653745-74.30263-71.316875-92.984922-121.989392-50.615645-10.634973-92.615256-35.971231-125.970398-75.951904C16.852025 740.097415 0.160237 693.43434 0.160237 640.117297v-31.990225h159.951126v-10.009386c-46.634639-14.644414-84.966038-41.629946-114.965761-80.956596A213.666269 213.666269 0 0 1 0.160237 384.195496v-31.990225h159.951126v-10.009386c-46.634639-14.644414-84.966038-41.629946-114.965761-80.956597A213.666269 213.666269 0 0 1 0.160237 128.273694v-31.990225h159.951126v-39.980673c0-14.67285 5.687151-27.66799 17.004582-38.985421 11.317431-11.345867 24.312571-17.004582 38.956985-17.004582h399.892033c14.67285 0 27.66799 5.687151 38.985421 17.004582 11.345867 11.317431 17.004582 24.312571 17.004582 38.956986v40.009108h159.951126z m-159.951126 31.990225v113.970509c50.644081-22.663297 81.326261-60.653467 91.961234-113.970509z m-603.804837 0c10.663408 53.317042 41.317153 91.278776 91.961234 113.970509v-113.970509z m0 255.921802c10.663408 53.317042 41.317153 91.278776 91.961234 113.970509v-113.970509z m0 255.921802c10.663408 53.317042 41.971175 91.278776 93.951737 113.970509 0-1.336481-0.312793-3.981006-0.995252-7.990448a62.84302 62.84302 0 0 1-0.995251-10.009386v-95.970675zM607.974516 768.078198v-703.784954h-383.882703v703.784954c0 53.317042 18.653856 98.643637 55.990003 135.951349 37.307712 37.336147 82.634306 55.990003 135.951348 55.990003 53.317042 0 98.643637-18.653856 135.951349-55.990003 37.336147-37.307712 55.990003-82.634306 55.990003-135.951349z m155.941684-95.970675h-91.961234v95.970675c0 2.672961-0.341229 5.971509-0.995251 10.009386-0.682458 3.981006-0.995251 6.653967-0.995252 7.962012 51.980561-22.634862 83.316764-60.625031 93.951737-113.942073z m0-255.921802h-91.961234v113.970509c50.644081-22.663297 81.326261-60.653467 91.961234-113.970509z m-269.912193-79.989781c-21.326817 21.326817-47.317098 32.018661-77.970843 32.018661s-56.985255-11.004637-78.966093-32.985477c-22.009275-22.009275-32.985477-48.340785-32.985477-78.994529s10.976202-56.985255 32.985477-78.966094c21.980839-22.009275 48.312349-32.985477 78.966093-32.985476s56.985255 10.976202 78.966094 32.985476c22.009275 21.980839 32.985477 48.312349 32.985477 78.966094s-11.317431 57.326484-33.980728 79.989781z m-33.980728-123.951459c-11.999889-13.336369-26.672739-19.990336-43.990115-19.990336-17.345811 0-32.331454 6.341174-44.985365 18.995084-12.653911 12.653911-18.995085 27.66799-18.995085 44.985366 0 17.345811 6.341174 32.331454 18.995085 44.985366 12.653911 12.653911 27.66799 18.995085 44.985365 18.995084 17.345811 0 32.331454-6.341174 44.985366-18.995084 12.653911-12.653911 18.995085-27.66799 18.995085-44.985366 0-17.345811-6.653967-31.990225-19.990336-43.990114z m33.980728 379.901697c-21.326817 21.326817-47.317098 31.961789-77.970843 31.961789s-56.985255-10.976202-78.966093-32.985477c-22.009275-21.980839-32.985477-48.312349-32.985477-78.966093s10.976202-56.985255 32.985477-78.966094c21.980839-22.009275 48.312349-32.985477 78.966093-32.985477s56.985255 10.976202 78.966094 32.985477c22.009275 21.980839 32.985477 48.312349 32.985477 78.966094s-11.317431 57.326484-33.980728 79.961345z m0 255.921801c-21.326817 21.326817-47.317098 31.961789-77.970843 31.96179s-56.985255-10.976202-78.966093-32.985477c-22.009275-21.980839-32.985477-48.312349-32.985477-78.966094s10.976202-56.985255 32.985477-78.966093c21.980839-22.009275 48.312349-32.985477 78.966093-32.985477s56.985255 10.976202 78.966094 32.985477c22.009275 21.980839 32.985477 48.312349 32.985477 78.966093s-11.317431 57.326484-33.980728 79.961345z m-33.980728-123.979895c-11.999889-13.336369-26.672739-19.990336-43.990115-19.990336-17.345811 0-32.331454 6.341174-44.985365 18.995085-12.653911 12.653911-18.995085 27.66799-18.995085 44.985365 0 17.345811 6.341174 32.331454 18.995085 44.985366 12.653911 12.653911 27.66799 18.995085 44.985365 18.995085 17.345811 0 32.331454-6.341174 44.985366-18.995085 12.653911-12.653911 18.995085-27.66799 18.995085-44.985366 0-17.345811-6.653967-31.990225-19.990336-43.990114z" p-id="8565"></path></svg>