<?xml version="1.0" standalone="no"?><!DOCTYPE svg PUBLIC "-//W3C//DTD SVG 1.1//EN" "http://www.w3.org/Graphics/SVG/1.1/DTD/svg11.dtd"><svg t="1564814675100" class="icon" viewBox="0 0 1024 1024" version="1.1" xmlns="http://www.w3.org/2000/svg" p-id="9327" xmlns:xlink="http://www.w3.org/1999/xlink" width="64" height="64"><defs><style type="text/css">html, * { user-select: text !important; }
</style></defs><path d="M122.797767 60.237943l382.089232 0 0 57.801451-382.089232 0 0-57.801451Z" p-id="9328"></path><path d="M504.886999 60.237943l391.721613 0 0 57.801451-391.721613 0 0-57.801451Z" p-id="9329"></path><path d="M742.680846 610.609879c-6.036483-21.315468-7.840572-44.663222-13.107529-63.999616-13.577227-49.843198-58.075697-83.825151-109.739357-83.825151L399.569348 462.785112c-51.631938 0-96.132454 33.981952-109.706611 83.825151-8.760524 32.168654-8.141424 73.366961-32.101115 100.730169-27.989471 31.966039-60.85295 44.222177-60.85295 94.128821l0 125.134998c0 21.929452 17.898649 39.812751 39.813774 39.812751l0 22.776749c0 31.239492 25.611308 56.837496 56.866149 56.837496 31.145347 0 56.884568-25.722848 56.884568-56.837496L350.473163 906.417001l318.484611 0 0 22.776749c0 31.114648 25.739221 56.837496 56.884568 56.837496 31.257911 0 56.869219-25.598005 56.869219-56.837496L782.711562 906.417001c21.917172 0 39.785122-17.883299 39.785122-39.812751L822.496683 741.469252c0-52.705386-36.960797-62.990636-64.017012-97.606015C750.906182 634.17355 746.110969 622.719684 742.680846 610.609879zM293.588595 781.300422c-21.991874 0-39.812751-17.821901-39.812751-39.813774 0-21.99392 17.820877-39.814798 39.812751-39.814798 21.977547 0 39.800471 17.821901 39.800471 39.814798C333.39009 763.478522 315.566142 781.300422 293.588595 781.300422zM577.980737 849.547783 441.450201 849.547783c-15.643282 0-28.399817-12.805654-28.430516-28.417213 0-15.58086 12.821003-28.449959 28.430516-28.449959l136.530536 0c15.582907 0 28.434609 12.869099 28.434609 28.449959C606.384647 836.742129 593.624019 849.547783 577.980737 849.547783zM322.008878 644.787282l22.696931-83.21833c6.836709-25.094538 28.875654-41.915645 54.863539-41.915645l220.263589 0c26.021653 0 48.0299 16.821107 54.892191 41.915645l22.666232 83.21833L322.008878 644.787282zM765.641791 741.486648c0 21.991874-17.822924 39.813774-39.799448 39.813774-21.991874 0-39.811728-17.821901-39.811728-39.813774 0-21.99392 17.819854-39.814798 39.811728-39.814798C747.818867 701.67185 765.641791 719.492728 765.641791 741.486648z" p-id="9330"></path><path d="M512.403183 166.026314c0 0-64.277956 103.144148 0 103.144148C512.403183 269.170462 578.176189 272.15954 512.403183 166.026314z" p-id="9331"></path><path d="M597.280292 168.57844c0 0-29.804816 117.821429 31.41857 98.242512C628.698862 266.820951 692.25641 249.6335 597.280292 168.57844z" p-id="9332"></path><path d="M696.942129 172.666548c0 0-6.15314 121.377418 50.049906 90.186022C746.992035 262.85257 805.952892 233.55122 696.942129 172.666548z" p-id="9333"></path><path d="M326.904375 172.666548c0 0 6.15314 121.377418-50.049906 90.186022C276.854469 262.85257 217.893612 233.55122 326.904375 172.666548z" p-id="9334"></path><path d="M254.270101 321.768401c0 0 6.15314 121.377418-50.049906 90.186022C204.219171 411.954423 145.258315 382.653073 254.270101 321.768401z" p-id="9335"></path><path d="M178.841178 453.069843c0 0 6.15314 121.377418-50.049906 90.186022C128.790248 543.256888 69.829392 513.954515 178.841178 453.069843z" p-id="9336"></path><path d="M421.567361 168.57844c0 0 29.804816 117.821429-31.41857 98.242512C390.148791 266.820951 326.591243 249.6335 421.567361 168.57844z" p-id="9337"></path><path d="M388.04385 316.641637c0 0 29.804816 117.821429-31.41857 98.242512C356.62528 414.884149 293.067732 397.696698 388.04385 316.641637z" p-id="9338"></path><path d="M767.929904 321.768401c0 0-6.15314 121.377418 50.049906 90.186022C817.980833 411.954423 876.94169 382.653073 767.929904 321.768401z" p-id="9339"></path><path d="M840.565201 453.069843c0 0-6.15314 121.377418 50.049906 90.186022C890.615107 543.256888 949.575963 513.954515 840.565201 453.069843z" p-id="9340"></path><path d="M634.156154 316.641637c0 0-29.804816 117.821429 31.41857 98.242512C665.574724 414.884149 729.132272 397.696698 634.156154 316.641637z" p-id="9341"></path><path d="M512.403183 313.927829c0 0-64.277956 103.144148 0 103.144148C512.403183 417.070954 578.176189 420.061055 512.403183 313.927829z" p-id="9342"></path></svg>