<?xml version="1.0" standalone="no"?><!DOCTYPE svg PUBLIC "-//W3C//DTD SVG 1.1//EN" "http://www.w3.org/Graphics/SVG/1.1/DTD/svg11.dtd"><svg t="1564814842207" class="icon" viewBox="0 0 1024 1024" version="1.1" xmlns="http://www.w3.org/2000/svg" p-id="15208" xmlns:xlink="http://www.w3.org/1999/xlink" width="64" height="64"><defs><style type="text/css">html, * { user-select: text !important; }
</style></defs><path d="M320 704a32 32 0 0 0-32 32v96a32 32 0 0 0 64 0v-96a32 32 0 0 0-32-32zM576 704a32 32 0 0 0-32 32v128a32 32 0 0 0 64 0v-128a32 32 0 0 0-32-32zM448 704a32 32 0 0 0-32 32v224a32 32 0 0 0 64 0V736a32 32 0 0 0-32-32zM704 704a32 32 0 0 0-32 32v224a32 32 0 0 0 64 0V736a32 32 0 0 0-32-32zM894.816 354.976C880 174.416 728.32 32 544 32 380.416 32 239.328 138.16 198.544 288H192C86.128 288 0 374.128 0 480s86.128 192 192 192h672c88.224 0 160-71.776 160-160 0-77.68-55.664-142.624-129.184-157.024zM864 608H192c-70.576 0-128-57.424-128-128s57.424-128 128-128h32a32 32 0 0 0 31.456-26.08C280.496 192.688 401.84 96 544 96c158.8 0 288 129.2 288 288a32 32 0 0 0 32 32c52.944 0 96 43.056 96 96s-43.056 96-96 96z" p-id="15209"></path></svg>