<?xml version="1.0" standalone="no"?><!DOCTYPE svg PUBLIC "-//W3C//DTD SVG 1.1//EN" "http://www.w3.org/Graphics/SVG/1.1/DTD/svg11.dtd"><svg t="1564814868533" class="icon" viewBox="0 0 1024 1024" version="1.1" xmlns="http://www.w3.org/2000/svg" p-id="16215" xmlns:xlink="http://www.w3.org/1999/xlink" width="64" height="64"><defs><style type="text/css">html, * { user-select: text !important; }
</style></defs><path d="M448.938667 396.458667a930.133333 930.133333 0 0 0 75.562666-3.114667 746.965333 746.965333 0 0 0 249.173334-59.733333c73.386667-34.56 111.744-78.805333 107.989333-124.672-8.149333-100.437333-203.050667-139.178667-382.250667-124.586667a747.093333 747.093333 0 0 0-249.173333 59.733333c-73.386667 34.56-111.744 78.805333-108.032 124.672S191.018667 352.170667 268.8 374.4a670.336 670.336 0 0 0 180.138667 22.058667zM193.322667 264.533333c-1.792-22.058667 28.416-50.517333 78.762666-74.197333A694.912 694.912 0 0 1 503.466667 135.210667c25.6-2.090667 50.090667-3.029333 73.216-3.029334 154.965333 0 250.837333 43.093333 253.909333 80.768 1.792 22.058667-28.416 50.517333-78.805333 74.197334a695.466667 695.466667 0 0 1-231.253334 55.168 694.357333 694.357333 0 0 1-237.354666-17.066667c-53.717333-15.36-88.064-38.570667-89.856-60.714667z m667.861333 109.824a25.6 25.6 0 0 1-1.152 36.181334c-87.466667 82.048-220.586667 114.304-348.714667 114.304a750.933333 750.933333 0 0 1-190.762666-24.234667 616.746667 616.746667 0 0 1-58.794667-19.072 25.6 25.6 0 1 1 18.005333-47.914667c19.413333 7.253333 37.077333 13.013333 54.016 17.536 187.093333 49.962667 389.12 17.877333 491.264-77.952a25.6 25.6 0 0 1 36.138667 1.152zM793.6 549.632a25.6 25.6 0 0 1-6.741333 35.541333 465.066667 465.066667 0 0 1-256 70.442667 467.328 467.328 0 0 1-126.848-16.384 25.6 25.6 0 1 1 14.122666-49.194667 440.874667 440.874667 0 0 0 340.010667-46.933333 25.6 25.6 0 0 1 35.456 6.528z m-44.842667 159.914667a25.6 25.6 0 0 1-11.904 34.133333 423.978667 423.978667 0 0 1-182.784 42.666667 359.978667 359.978667 0 0 1-90.794666-11.306667A25.6 25.6 0 0 1 476.16 725.333333a353.664 353.664 0 0 0 238.421333-27.733333 25.6 25.6 0 0 1 34.176 11.946667z m1.92 210.389333a25.6 25.6 0 0 1-25.6 22.997333 22.869333 22.869333 0 0 1-2.645333 0 225.322667 225.322667 0 0 1-85.333333-26.837333 264.277333 264.277333 0 0 1-52.736-38.4 25.6 25.6 0 1 1 34.730666-37.589333 214.656 214.656 0 0 0 42.666667 30.890666 174.506667 174.506667 0 0 0 65.92 20.864 25.6 25.6 0 0 1 22.997333 28.117334z" p-id="16216"></path></svg>