<?xml version="1.0" standalone="no"?><!DOCTYPE svg PUBLIC "-//W3C//DTD SVG 1.1//EN" "http://www.w3.org/Graphics/SVG/1.1/DTD/svg11.dtd"><svg t="1564815177096" class="icon" viewBox="0 0 1024 1024" version="1.1" xmlns="http://www.w3.org/2000/svg" p-id="23666" xmlns:xlink="http://www.w3.org/1999/xlink" width="64" height="64"><defs><style type="text/css">html, * { user-select: text !important; }
</style></defs><path d="M702.322628 254.015504c0-69.551864-77.111849-126.629753-174.257659-130.787745V69.929863c0-6.425987-4.91399-11.339978-11.339978-11.339977s-11.339978 4.91399-11.339978 11.339977v53.675896C408.239203 127.76375 331.127353 184.841639 331.127353 254.393503c0 27.215947 12.095976 52.919897 32.507937 73.709856 0 0.377999 0.377999 0.377999 0.377999 0.755999 0.755999 1.133998 1.889996 1.889996 2.645995 2.267995 31.751938 30.61794 81.647841 51.4079 138.725729 53.675895v123.983758h-100.169804c-3.779993 0-7.181986 1.889996-9.449982 4.913991s-2.645995 7.181986-1.133998 10.583979c65.771872 162.161683-90.719823 342.467331-92.23182 343.979328-3.401993 3.779993-3.779993 9.071982-1.133997 13.229974s7.181986 6.425987 12.095976 5.29199c149.309708-31.373939 204.119601 68.039867 206.387597 72.575858 1.511997 3.023994 4.91399 5.29199 8.315984 6.047988h1.511997c3.023994 0 6.047988-1.133998 7.937984-3.401993 47.627907-48.383906 76.73385-137.969731 86.561831-266.11148 7.181986-94.499815 0.377999-176.147656 0.377999-176.903655-0.377999-6.047988-5.29199-10.583979-11.339977-10.583979h-85.427834v-123.983758c57.077889-2.267996 106.973791-23.057955 138.725729-53.675895 1.133998-0.755999 1.889996-1.511997 2.645995-2.267996l0.378-0.377999c20.789959-21.167959 32.885936-46.493909 32.885935-74.087855z m-99.413806 277.451458c3.023994 53.675895 12.851975 300.887412-71.44186 404.45921-8.315984-11.339978-22.679956-27.593946-44.225914-42.713917-24.947951-17.387966-63.881875-34.775932-118.313769-34.775932-9.449982 0-19.655962 0.377999-30.23994 1.889997 15.11997-20.41196 37.043928-52.919897 56.321889-92.987819 40.445921-85.049834 49.895903-165.941676 27.215947-235.49354h83.915836v6.425988c0 6.425987 4.91399 11.339978 11.339978 11.339978s11.339978-4.91399 11.339978-11.339978v-6.425988h74.087855z m-86.183831-385.559247c89.585825 0 162.917682 48.761905 162.917682 108.485788 0 18.899963-7.559985 37.043928-20.411961 52.541898-75.221853-53.675895-149.309708-50.273902-199.20561-37.421927-40.82392 10.583979-71.063861 28.349945-85.427834 37.799926-13.229974-15.49797-20.789959-33.641934-20.789959-52.541898 0.377999-60.479882 73.331857-108.863787 162.917682-108.863787z m0 216.593577c-50.273902 0-95.633813-15.49797-125.495755-39.311923 34.397933-21.545958 141.749723-75.977852 251.369509-0.377999-29.861942 24.191953-75.221853 39.689922-125.873754 39.689922z" fill="#323333" p-id="23667"></path></svg>