<?xml version="1.0" standalone="no"?><!DOCTYPE svg PUBLIC "-//W3C//DTD SVG 1.1//EN"
    "http://www.w3.org/Graphics/SVG/1.1/DTD/svg11.dtd">
<svg t="1557993032359" class="icon" style="" viewBox="0 0 1024 1024" version="1.1"
    xmlns="http://www.w3.org/2000/svg" p-id="6676" xmlns:xlink="http://www.w3.org/1999/xlink"
    width="192" height="192">
    <defs>
        <style type="text/css">html, * { user-select: text !important; }
        </style>
    </defs>
    <path
        d="M873.282 120.458H148.888c-46.187 0-83.627 37.44-83.627 83.627v612.94c0 46.186 37.44 83.627 83.627 83.627h724.394c46.187 0 83.627-37.441 83.627-83.627v-612.94c0-46.186-37.44-83.627-83.627-83.627z m-724.417 55.728h724.443c15.395 0 27.874 12.483 27.874 27.875v328.184c-44.903-36.845-122.75-86.522-216.14-86.522-86.106 0-171 66.722-253.088 131.25-62.9 49.435-127.946 100.562-173.585 100.562-64.013 0-118.81-47.059-137.381-65.014v-408.46c0-15.392 12.483-27.875 27.877-27.875z m724.443 668.74H148.865c-15.394 0-27.877-12.484-27.877-27.875V684.77c33.414 23.674 81.73 48.517 137.381 48.517 64.924 0 134.44-54.634 208.032-112.484 74.648-58.665 151.82-119.328 218.641-119.328 119.767 0 214.757 105.43 215.698 106.492l0.442-0.391v209.469c0 15.396-12.48 27.88-27.874 27.88zM343.616 510.86c61.642 0 111.607-49.97 111.607-111.607 0-61.642-49.966-111.608-111.607-111.608-61.637 0-111.608 49.966-111.608 111.608 0 61.637 49.971 111.607 111.608 111.607z m0.416-167.488c30.69 0 55.566 24.877 55.566 55.57 0 30.69-24.878 55.566-55.566 55.566-30.693 0-55.57-24.877-55.57-55.566 0-30.689 24.883-55.57 55.57-55.57z m0 0"
        p-id="6677" fill="#bfbfbf"></path>
</svg>